<?xml version="1.0" standalone="no"?>
<!DOCTYPE svg PUBLIC "-//W3C//DTD SVG 20010904//EN"
 "http://www.w3.org/TR/2001/REC-SVG-20010904/DTD/svg10.dtd">
<svg version="1.0" xmlns="http://www.w3.org/2000/svg"
 width="512.000000pt" height="512.000000pt" viewBox="0 0 512.000000 512.000000"
 preserveAspectRatio="xMidYMid meet">

<g transform="translate(0.000000,512.000000) scale(0.100000,-0.100000)"
fill="#000000" stroke="none">
<path d="M1265 4327 c-173 -58 -321 -188 -400 -352 -72 -148 -80 -191 -80
-415 1 -164 4 -211 23 -299 228 -1046 1400 -2216 2459 -2453 133 -30 451 -33
553 -5 221 61 383 195 478 395 35 74 37 82 37 182 0 93 -3 112 -26 161 -15 31
-44 75 -65 99 -21 23 -173 136 -337 251 -321 224 -369 249 -482 249 -102 0
-230 -56 -293 -128 -13 -15 -53 -69 -88 -119 -36 -51 -67 -93 -70 -93 -7 0
-144 100 -224 164 -271 217 -601 549 -811 816 -46 59 -139 189 -139 194 0 2
50 39 111 82 127 89 178 151 209 252 25 82 25 153 0 235 -17 53 -59 121 -229
364 -115 164 -228 316 -251 337 -70 63 -140 90 -245 93 -56 2 -105 -2 -130
-10z"/>
</g>
</svg>
