<?xml version="1.0" standalone="no"?>
<!DOCTYPE svg PUBLIC "-//W3C//DTD SVG 20010904//EN"
 "http://www.w3.org/TR/2001/REC-SVG-20010904/DTD/svg10.dtd">
<svg version="1.0" xmlns="http://www.w3.org/2000/svg"
 width="1920.000000pt" height="1597.000000pt" viewBox="0 0 1920.000000 1597.000000"
 preserveAspectRatio="xMidYMid meet">

<g transform="translate(0.000000,1597.000000) scale(0.100000,-0.100000)"
fill="#000000" stroke="none">
<path d="M4120 12000 c-254 -30 -476 -143 -660 -336 -142 -149 -226 -310 -278
-529 -15 -64 -16 -332 -19 -3080 -3 -2053 0 -3041 7 -3109 29 -271 136 -494
328 -678 161 -155 335 -245 557 -289 101 -20 10985 -21 11085 -1 218 44 402
138 556 284 160 152 259 327 317 558 l21 85 4 2990 c2 2147 0 3025 -8 3113
-25 279 -133 506 -328 694 -102 97 -169 144 -295 203 -106 50 -216 81 -337 95
-102 12 -10851 11 -10950 0z m10993 -484 c37 -10 66 -22 65 -27 -2 -4 -181
-163 -398 -351 -217 -189 -739 -642 -1160 -1008 -421 -365 -1037 -901 -1370
-1190 -333 -289 -832 -723 -1110 -964 -278 -242 -736 -640 -1018 -885 -283
-245 -517 -446 -522 -446 -4 0 -221 187 -481 416 -261 229 -888 780 -1394
1224 -506 445 -1046 919 -1200 1055 -154 135 -559 491 -900 791 -341 299 -833
731 -1092 959 -319 280 -468 417 -459 422 7 4 42 11 77 16 38 6 2231 9 5479 8
5268 -1 5417 -2 5483 -20z m-10853 -814 c1724 -1514 2589 -2273 3030 -2661
272 -238 499 -437 503 -441 4 -4 -124 -93 -285 -198 -161 -105 -1092 -715
-2068 -1355 -976 -640 -1778 -1161 -1783 -1157 -4 3 -11 40 -17 81 -13 103
-13 5930 0 6024 11 74 47 195 58 195 4 0 257 -219 562 -488z m11284 373 c14
-53 16 -383 16 -3086 0 -1665 -3 -3041 -6 -3058 -4 -17 -10 -31 -14 -31 -4 0
-157 99 -341 219 -184 121 -505 332 -714 469 -2047 1341 -3055 2006 -3053
2012 2 5 285 253 629 552 841 730 1683 1462 2139 1858 206 179 586 510 844
734 258 224 472 404 477 399 4 -4 15 -35 23 -68z m-6658 -4436 c388 -341 708
-619 713 -619 4 0 329 279 722 621 393 341 719 623 725 626 12 4 162 -93 1639
-1062 920 -604 1017 -668 1899 -1245 366 -239 665 -439 666 -443 0 -11 -94
-51 -160 -68 -78 -20 -10895 -21 -10978 -1 -59 13 -152 51 -152 61 1 11 4204
2760 4213 2754 5 -3 326 -284 713 -624z"/>
</g>
</svg>
